<mxfile host="app.diagrams.net" modified="2024-04-24T07:39:59.578Z" agent="Mozilla/5.0 (Windows NT 10.0; Win64; x64) AppleWebKit/537.36 (KHTML, like Gecko) Chrome/123.0.0.0 Safari/537.36" etag="Xgu7jAyE1xdB_YqTFDnn" version="24.2.8" type="device">
  <diagram name="페이지-1" id="SmiFYK2fzkgYClPn_HZS">
    <mxGraphModel dx="844" dy="724" grid="1" gridSize="10" guides="1" tooltips="1" connect="1" arrows="1" fold="1" page="1" pageScale="1" pageWidth="827" pageHeight="1169" math="0" shadow="0">
      <root>
        <mxCell id="0" />
        <mxCell id="1" parent="0" />
        <mxCell id="J6FJ2Bsc3qEuJQ3ttm7T-6" value="&lt;div&gt;데이터&lt;/div&gt;&lt;div&gt;프레임&lt;/div&gt;" style="shape=cylinder3;whiteSpace=wrap;html=1;boundedLbl=1;backgroundOutline=1;size=15;" vertex="1" parent="1">
          <mxGeometry x="550" y="20" width="60" height="80" as="geometry" />
        </mxCell>
        <mxCell id="J6FJ2Bsc3qEuJQ3ttm7T-8" value="정규성검사" style="whiteSpace=wrap;html=1;" vertex="1" parent="1">
          <mxGeometry x="360" y="40" width="120" height="40" as="geometry" />
        </mxCell>
        <mxCell id="J6FJ2Bsc3qEuJQ3ttm7T-9" value="정규성이니?" style="rhombus;whiteSpace=wrap;html=1;" vertex="1" parent="1">
          <mxGeometry x="360" y="120" width="120" height="40" as="geometry" />
        </mxCell>
        <mxCell id="J6FJ2Bsc3qEuJQ3ttm7T-11" value="" style="edgeStyle=none;orthogonalLoop=1;jettySize=auto;html=1;rounded=0;exitX=0.5;exitY=1;exitDx=0;exitDy=0;entryX=0.5;entryY=0;entryDx=0;entryDy=0;" edge="1" parent="1" source="J6FJ2Bsc3qEuJQ3ttm7T-8" target="J6FJ2Bsc3qEuJQ3ttm7T-9">
          <mxGeometry width="100" relative="1" as="geometry">
            <mxPoint x="460" y="90" as="sourcePoint" />
            <mxPoint x="560" y="90" as="targetPoint" />
            <Array as="points" />
          </mxGeometry>
        </mxCell>
        <mxCell id="J6FJ2Bsc3qEuJQ3ttm7T-12" value="등분산성테스트" style="whiteSpace=wrap;html=1;" vertex="1" parent="1">
          <mxGeometry x="360" y="200" width="120" height="40" as="geometry" />
        </mxCell>
        <mxCell id="J6FJ2Bsc3qEuJQ3ttm7T-13" value="" style="edgeStyle=none;orthogonalLoop=1;jettySize=auto;html=1;rounded=0;exitX=0.5;exitY=1;exitDx=0;exitDy=0;entryX=0.5;entryY=0;entryDx=0;entryDy=0;" edge="1" parent="1" source="J6FJ2Bsc3qEuJQ3ttm7T-9" target="J6FJ2Bsc3qEuJQ3ttm7T-12">
          <mxGeometry width="100" relative="1" as="geometry">
            <mxPoint x="500" y="160" as="sourcePoint" />
            <mxPoint x="600" y="160" as="targetPoint" />
            <Array as="points" />
          </mxGeometry>
        </mxCell>
        <mxCell id="J6FJ2Bsc3qEuJQ3ttm7T-16" value="등분산성테스트&lt;div&gt;levene.test()&lt;/div&gt;" style="whiteSpace=wrap;html=1;" vertex="1" parent="1">
          <mxGeometry x="560" y="200" width="120" height="40" as="geometry" />
        </mxCell>
        <mxCell id="J6FJ2Bsc3qEuJQ3ttm7T-17" value="" style="edgeStyle=none;orthogonalLoop=1;jettySize=auto;html=1;rounded=0;exitX=1;exitY=0.5;exitDx=0;exitDy=0;entryX=0.5;entryY=0;entryDx=0;entryDy=0;" edge="1" parent="1" source="J6FJ2Bsc3qEuJQ3ttm7T-9" target="J6FJ2Bsc3qEuJQ3ttm7T-16">
          <mxGeometry width="100" relative="1" as="geometry">
            <mxPoint x="450" y="280" as="sourcePoint" />
            <mxPoint x="550" y="280" as="targetPoint" />
            <Array as="points">
              <mxPoint x="620" y="140" />
            </Array>
          </mxGeometry>
        </mxCell>
        <mxCell id="J6FJ2Bsc3qEuJQ3ttm7T-18" value="" style="edgeStyle=none;orthogonalLoop=1;jettySize=auto;html=1;rounded=0;exitX=0.5;exitY=1;exitDx=0;exitDy=0;entryX=0.5;entryY=0;entryDx=0;entryDy=0;" edge="1" parent="1" source="J6FJ2Bsc3qEuJQ3ttm7T-12">
          <mxGeometry width="100" relative="1" as="geometry">
            <mxPoint x="440" y="310" as="sourcePoint" />
            <mxPoint x="420" y="280" as="targetPoint" />
            <Array as="points" />
          </mxGeometry>
        </mxCell>
        <mxCell id="J6FJ2Bsc3qEuJQ3ttm7T-19" value="YES" style="text;html=1;align=center;verticalAlign=middle;resizable=0;points=[];autosize=1;strokeColor=none;fillColor=none;" vertex="1" parent="1">
          <mxGeometry x="420" y="160" width="50" height="30" as="geometry" />
        </mxCell>
        <mxCell id="J6FJ2Bsc3qEuJQ3ttm7T-20" value="YES" style="text;html=1;align=center;verticalAlign=middle;resizable=0;points=[];autosize=1;strokeColor=none;fillColor=none;" vertex="1" parent="1">
          <mxGeometry x="420" y="320" width="50" height="30" as="geometry" />
        </mxCell>
        <mxCell id="J6FJ2Bsc3qEuJQ3ttm7T-21" value="그룹이 2개니?" style="rhombus;whiteSpace=wrap;html=1;" vertex="1" parent="1">
          <mxGeometry x="360" y="280" width="120" height="40" as="geometry" />
        </mxCell>
        <mxCell id="J6FJ2Bsc3qEuJQ3ttm7T-22" value="var.test()" style="whiteSpace=wrap;html=1;" vertex="1" parent="1">
          <mxGeometry x="360" y="360" width="120" height="40" as="geometry" />
        </mxCell>
        <mxCell id="J6FJ2Bsc3qEuJQ3ttm7T-23" value="" style="edgeStyle=none;orthogonalLoop=1;jettySize=auto;html=1;rounded=0;exitX=0.5;exitY=1;exitDx=0;exitDy=0;entryX=0.5;entryY=0;entryDx=0;entryDy=0;" edge="1" parent="1" source="J6FJ2Bsc3qEuJQ3ttm7T-21" target="J6FJ2Bsc3qEuJQ3ttm7T-22">
          <mxGeometry width="100" relative="1" as="geometry">
            <mxPoint x="450" y="300" as="sourcePoint" />
            <mxPoint x="550" y="300" as="targetPoint" />
            <Array as="points" />
          </mxGeometry>
        </mxCell>
        <mxCell id="J6FJ2Bsc3qEuJQ3ttm7T-24" value="bartlett.test()" style="whiteSpace=wrap;html=1;" vertex="1" parent="1">
          <mxGeometry x="200" y="360" width="120" height="40" as="geometry" />
        </mxCell>
        <mxCell id="J6FJ2Bsc3qEuJQ3ttm7T-25" value="" style="edgeStyle=none;orthogonalLoop=1;jettySize=auto;html=1;rounded=0;exitX=0;exitY=0.5;exitDx=0;exitDy=0;entryX=0.5;entryY=0;entryDx=0;entryDy=0;" edge="1" parent="1" source="J6FJ2Bsc3qEuJQ3ttm7T-21" target="J6FJ2Bsc3qEuJQ3ttm7T-24">
          <mxGeometry width="100" relative="1" as="geometry">
            <mxPoint x="250" y="310" as="sourcePoint" />
            <mxPoint x="350" y="310" as="targetPoint" />
            <Array as="points">
              <mxPoint x="260" y="300" />
            </Array>
          </mxGeometry>
        </mxCell>
        <mxCell id="J6FJ2Bsc3qEuJQ3ttm7T-26" value="NO" style="text;html=1;align=center;verticalAlign=middle;resizable=0;points=[];autosize=1;strokeColor=none;fillColor=none;" vertex="1" parent="1">
          <mxGeometry x="320" y="268" width="40" height="30" as="geometry" />
        </mxCell>
        <mxCell id="J6FJ2Bsc3qEuJQ3ttm7T-27" value="NO" style="text;html=1;align=center;verticalAlign=middle;resizable=0;points=[];autosize=1;strokeColor=none;fillColor=none;" vertex="1" parent="1">
          <mxGeometry x="480" y="110" width="40" height="30" as="geometry" />
        </mxCell>
        <mxCell id="J6FJ2Bsc3qEuJQ3ttm7T-28" value="그룹간 분산성이 같니?" style="rhombus;whiteSpace=wrap;html=1;" vertex="1" parent="1">
          <mxGeometry x="160" y="440" width="200" height="40" as="geometry" />
        </mxCell>
        <mxCell id="J6FJ2Bsc3qEuJQ3ttm7T-29" value="" style="edgeStyle=none;orthogonalLoop=1;jettySize=auto;html=1;rounded=0;exitX=0.5;exitY=1;exitDx=0;exitDy=0;entryX=0.5;entryY=0;entryDx=0;entryDy=0;" edge="1" parent="1" source="J6FJ2Bsc3qEuJQ3ttm7T-24" target="J6FJ2Bsc3qEuJQ3ttm7T-28">
          <mxGeometry width="100" relative="1" as="geometry">
            <mxPoint x="370" y="480" as="sourcePoint" />
            <mxPoint x="470" y="480" as="targetPoint" />
            <Array as="points" />
          </mxGeometry>
        </mxCell>
        <mxCell id="J6FJ2Bsc3qEuJQ3ttm7T-31" value="YES" style="text;html=1;align=center;verticalAlign=middle;resizable=0;points=[];autosize=1;strokeColor=none;fillColor=none;" vertex="1" parent="1">
          <mxGeometry x="265" y="480" width="50" height="30" as="geometry" />
        </mxCell>
        <mxCell id="J6FJ2Bsc3qEuJQ3ttm7T-32" value="YES" style="text;html=1;align=center;verticalAlign=middle;resizable=0;points=[];autosize=1;strokeColor=none;fillColor=none;" vertex="1" parent="1">
          <mxGeometry x="360" y="460" width="50" height="30" as="geometry" />
        </mxCell>
        <mxCell id="J6FJ2Bsc3qEuJQ3ttm7T-33" value="그룹간 분산성이 같니?" style="rhombus;whiteSpace=wrap;html=1;" vertex="1" parent="1">
          <mxGeometry x="520" y="280" width="200" height="40" as="geometry" />
        </mxCell>
        <mxCell id="J6FJ2Bsc3qEuJQ3ttm7T-34" value="" style="edgeStyle=none;orthogonalLoop=1;jettySize=auto;html=1;rounded=0;exitX=0.5;exitY=1;exitDx=0;exitDy=0;entryX=0.5;entryY=0;entryDx=0;entryDy=0;" edge="1" parent="1" source="J6FJ2Bsc3qEuJQ3ttm7T-16" target="J6FJ2Bsc3qEuJQ3ttm7T-33">
          <mxGeometry width="100" relative="1" as="geometry">
            <mxPoint x="610" y="260" as="sourcePoint" />
            <mxPoint x="710" y="260" as="targetPoint" />
            <Array as="points" />
          </mxGeometry>
        </mxCell>
        <mxCell id="J6FJ2Bsc3qEuJQ3ttm7T-35" value="t.test()" style="whiteSpace=wrap;html=1;" vertex="1" parent="1">
          <mxGeometry x="560" y="360" width="120" height="40" as="geometry" />
        </mxCell>
        <mxCell id="J6FJ2Bsc3qEuJQ3ttm7T-40" value="" style="edgeStyle=none;orthogonalLoop=1;jettySize=auto;html=1;rounded=0;exitX=1;exitY=0.5;exitDx=0;exitDy=0;entryX=0.5;entryY=0;entryDx=0;entryDy=0;" edge="1" parent="1" source="J6FJ2Bsc3qEuJQ3ttm7T-28" target="J6FJ2Bsc3qEuJQ3ttm7T-41">
          <mxGeometry width="100" relative="1" as="geometry">
            <mxPoint x="390" y="560" as="sourcePoint" />
            <mxPoint x="400" y="550" as="targetPoint" />
            <Array as="points">
              <mxPoint x="420" y="460" />
            </Array>
          </mxGeometry>
        </mxCell>
        <mxCell id="J6FJ2Bsc3qEuJQ3ttm7T-41" value="aov()" style="whiteSpace=wrap;html=1;" vertex="1" parent="1">
          <mxGeometry x="360" y="520" width="120" height="40" as="geometry" />
        </mxCell>
        <mxCell id="J6FJ2Bsc3qEuJQ3ttm7T-42" value="" style="edgeStyle=none;orthogonalLoop=1;jettySize=auto;html=1;rounded=0;exitX=1;exitY=0.5;exitDx=0;exitDy=0;entryX=0;entryY=0.5;entryDx=0;entryDy=0;" edge="1" parent="1" source="J6FJ2Bsc3qEuJQ3ttm7T-22" target="J6FJ2Bsc3qEuJQ3ttm7T-35">
          <mxGeometry width="100" relative="1" as="geometry">
            <mxPoint x="480" y="490" as="sourcePoint" />
            <mxPoint x="580" y="490" as="targetPoint" />
            <Array as="points" />
          </mxGeometry>
        </mxCell>
      </root>
    </mxGraphModel>
  </diagram>
</mxfile>
